<svg width="120" height="69" viewBox="0 0 120 69" fill="none" xmlns="http://www.w3.org/2000/svg">
    <path fill-rule="evenodd" clip-rule="evenodd"
        d="M 68.8 12 C 68.9 12.2 69 12.4 69.1 12.6 C 74 13.9 77.7 18.3 77.7 23.6 C 77.7 29.9 72.4 35 65.9 35 C 62.6 35 59.5 33.6 57.4 31.4 H 49.2 C 47.5 31.4 46 30 46 28.3 C 46 27.3 46.5 26.4 47.2 25.9 C 46.5 25.3 46 24.4 46 23.4 C 46 22.5 46.5 21.6 47.2 21 C 46.5 20.5 46 19.6 46 18.6 C 46 17.6 46.5 16.8 47.2 16.2 C 46.5 15.6 46 14.7 46 13.8 C 46 12.1 47.5 10.7 49.2 10.7 H 51 C 50.7 10.2 50.5 9.6 50.5 8.9 C 50.5 8.3 50.7 7.7 51 7.2 H 45.5 C 43.7 7.2 42.3 5.8 42.3 4.1 C 42.3 2.4 43.7 1 45.5 1 H 62.4 C 64.2 1 65.6 2.4 65.6 4.1 C 65.6 4.7 65.4 5.3 65 5.8 H 70.6 C 72.3 5.8 73.8 7.2 73.8 8.9 C 73.8 10.6 72.3 12 70.6 12 H 68.8 Z M 72.4 8.9 C 72.4 8 71.6 7.2 70.6 7.2 H 53.6 C 52.7 7.2 51.8 8 51.8 8.9 C 51.8 9.9 52.7 10.7 53.6 10.7 H 66.2 H 70.6 C 71.6 10.7 72.4 9.9 72.4 8.9 Z M 43.7 4.1 C 43.7 5.1 44.5 5.8 45.5 5.8 H 62.4 C 63.4 5.8 64.2 5.1 64.2 4.1 C 64.2 3.1 63.4 2.3 62.4 2.3 H 45.5 C 44.5 2.3 43.7 3.1 43.7 4.1 Z M 66.2 12 H 49.2 C 48.2 12 47.4 12.8 47.4 13.8 C 47.4 14.7 48.2 15.5 49.2 15.5 H 57.6 C 59.8 13.4 62.7 12.2 65.9 12.2 C 66.3 12.2 66.6 12.2 66.9 12.2 C 66.7 12.1 66.4 12 66.2 12 Z M 56.4 16.9 H 49.2 C 48.2 16.9 47.4 17.6 47.4 18.6 C 47.4 19.6 48.2 20.4 49.2 20.4 H 54.7 C 55.1 19.1 55.7 17.9 56.4 16.9 Z M 54.4 21.7 H 49.2 C 48.2 21.7 47.4 22.5 47.4 23.4 C 47.4 24.4 48.2 25.2 49.2 25.2 H 54.3 C 54.2 24.7 54.2 24.1 54.2 23.6 C 54.2 22.9 54.3 22.3 54.4 21.7 Z M 47.4 28.3 C 47.4 29.2 48.2 30 49.2 30 H 56.3 C 55.5 29 54.9 27.8 54.6 26.5 H 49.2 C 48.2 26.5 47.4 27.3 47.4 28.3 Z M 55.6 23.6 C 55.6 29.1 60.2 33.7 65.9 33.7 C 71.7 33.7 76.3 29.1 76.3 23.6 C 76.3 18 71.7 13.5 65.9 13.5 C 60.2 13.5 55.6 18 55.6 23.6 Z M 64.2 21.3 C 64.2 22.1 65 22.8 65.9 22.8 C 67.8 22.8 69.3 24.1 69.3 25.8 C 69.3 27.2 68.2 28.4 66.7 28.7 V 29.1 C 66.7 29.5 66.4 29.9 65.9 29.9 C 65.5 29.9 65.1 29.5 65.1 29.1 V 28.7 C 63.7 28.4 62.6 27.2 62.6 25.8 C 62.6 25.4 62.9 25 63.4 25 C 63.8 25 64.2 25.4 64.2 25.8 C 64.2 26.6 65 27.3 65.9 27.3 C 66.9 27.3 67.7 26.6 67.7 25.8 C 67.7 25 66.9 24.3 65.9 24.3 C 64.1 24.3 62.6 23 62.6 21.3 C 62.6 19.9 63.7 18.7 65.1 18.3 V 17.9 C 65.1 17.5 65.5 17.1 65.9 17.1 C 66.4 17.1 66.7 17.5 66.7 17.9 V 18.3 C 68.2 18.7 69.3 19.9 69.3 21.3 C 69.3 21.7 68.9 22.1 68.5 22.1 C 68.1 22.1 67.7 21.7 67.7 21.3 C 67.7 20.5 66.9 19.8 65.9 19.8 C 65 19.8 64.2 20.5 64.2 21.3 Z"
        fill="#ff872c" />
    <path
        d="M 69.1 12.6 L 68.9 12.7 L 68.9 12.8 L 69 12.8 L 69.1 12.6 Z M 68.8 12 V 11.8 H 68.3 L 68.6 12.2 L 68.8 12 Z M 57.4 31.4 L 57.5 31.2 L 57.5 31.1 H 57.4 V 31.4 Z M 47.2 25.9 L 47.4 26.1 L 47.7 25.9 L 47.4 25.7 L 47.2 25.9 Z M 47.2 21 L 47.4 21.2 L 47.7 21 L 47.4 20.8 L 47.2 21 Z M 47.2 16.2 L 47.4 16.4 L 47.7 16.2 L 47.4 16 L 47.2 16.2 Z M 51 10.7 V 10.9 H 51.5 L 51.2 10.5 L 51 10.7 Z M 51 7.2 L 51.2 7.3 L 51.5 6.9 H 51 V 7.2 Z M 65 5.8 L 64.8 5.7 L 64.6 6.1 H 65 V 5.8 Z M 57.6 15.5 V 15.8 H 57.7 L 57.8 15.7 L 57.6 15.5 Z M 66.9 12.2 L 66.9 12.4 L 67 12 L 66.9 12.2 Z M 56.4 16.9 L 56.6 17 L 57 16.6 H 56.4 V 16.9 Z M 54.7 20.4 V 20.6 H 54.9 L 54.9 20.4 L 54.7 20.4 Z M 54.4 21.7 L 54.6 21.7 L 54.7 21.4 H 54.4 V 21.7 Z M 54.3 25.2 V 25.4 H 54.6 L 54.6 25.2 L 54.3 25.2 Z M 56.3 30 V 30.3 H 56.7 L 56.5 29.9 L 56.3 30 Z M 54.6 26.5 L 54.8 26.5 L 54.8 26.3 H 54.6 V 26.5 Z M 66.7 28.7 L 66.7 28.5 L 66.5 28.5 V 28.7 H 66.7 Z M 65.1 28.7 H 65.4 V 28.5 L 65.2 28.5 L 65.1 28.7 Z M 65.1 18.3 L 65.2 18.6 L 65.4 18.5 V 18.3 H 65.1 Z M 66.7 18.3 H 66.5 V 18.5 L 66.7 18.6 L 66.7 18.3 Z M 69.3 12.5 C 69.2 12.3 69.1 12.1 69 11.9 L 68.6 12.2 C 68.7 12.3 68.8 12.5 68.9 12.7 L 69.3 12.5 Z M 77.9 23.6 C 77.9 18.2 74.2 13.7 69.1 12.3 L 69 12.8 C 73.9 14.1 77.4 18.5 77.4 23.6 H 77.9 Z M 65.9 35.3 C 72.6 35.3 77.9 30 77.9 23.6 H 77.4 C 77.4 29.7 72.3 34.8 65.9 34.8 V 35.3 Z M 57.2 31.5 C 59.4 33.8 62.5 35.3 65.9 35.3 V 34.8 C 62.6 34.8 59.6 33.4 57.5 31.2 L 57.2 31.5 Z M 49.2 31.6 H 57.4 V 31.1 H 49.2 V 31.6 Z M 45.8 28.3 C 45.8 30.1 47.3 31.6 49.2 31.6 V 31.1 C 47.6 31.1 46.3 29.8 46.3 28.3 H 45.8 Z M 47.1 25.7 C 46.3 26.3 45.8 27.2 45.8 28.3 H 46.3 C 46.3 27.4 46.7 26.6 47.4 26.1 L 47.1 25.7 Z M 45.8 23.4 C 45.8 24.5 46.3 25.4 47.1 26.1 L 47.4 25.7 C 46.7 25.1 46.3 24.3 46.3 23.4 H 45.8 Z M 47.1 20.8 C 46.3 21.4 45.8 22.4 45.8 23.4 H 46.3 C 46.3 22.5 46.7 21.7 47.4 21.2 L 47.1 20.8 Z M 45.8 18.6 C 45.8 19.7 46.3 20.6 47.1 21.2 L 47.4 20.8 C 46.7 20.3 46.3 19.5 46.3 18.6 H 45.8 Z M 47.1 16 C 46.3 16.6 45.8 17.5 45.8 18.6 H 46.3 C 46.3 17.7 46.7 16.9 47.4 16.4 L 47.1 16 Z M 45.8 13.8 C 45.8 14.8 46.3 15.8 47.1 16.4 L 47.4 16 C 46.7 15.5 46.3 14.7 46.3 13.8 H 45.8 Z M 49.2 10.4 C 47.3 10.4 45.8 11.9 45.8 13.8 H 46.3 C 46.3 12.2 47.6 10.9 49.2 10.9 V 10.4 Z M 51 10.4 H 49.2 V 10.9 H 51 V 10.4 Z M 50.2 8.9 C 50.2 9.6 50.4 10.3 50.8 10.8 L 51.2 10.5 C 50.9 10.1 50.7 9.5 50.7 8.9 H 50.2 Z M 50.8 7 C 50.4 7.6 50.2 8.2 50.2 8.9 H 50.7 C 50.7 8.3 50.9 7.8 51.2 7.3 L 50.8 7 Z M 45.5 7.4 H 51 V 6.9 H 45.5 V 7.4 Z M 42.1 4.1 C 42.1 5.9 43.6 7.4 45.5 7.4 V 6.9 C 43.9 6.9 42.6 5.7 42.6 4.1 H 42.1 Z M 45.5 0.8 C 43.6 0.8 42.1 2.2 42.1 4.1 H 42.6 C 42.6 2.5 43.9 1.3 45.5 1.3 V 0.8 Z M 62.4 0.8 H 45.5 V 1.3 H 62.4 V 0.8 Z M 65.8 4.1 C 65.8 2.2 64.3 0.8 62.4 0.8 V 1.3 C 64 1.3 65.3 2.5 65.3 4.1 H 65.8 Z M 65.2 6 C 65.6 5.4 65.8 4.8 65.8 4.1 H 65.3 C 65.3 4.7 65.2 5.2 64.8 5.7 L 65.2 6 Z M 70.6 5.6 H 65 V 6.1 H 70.6 V 5.6 Z M 74 8.9 C 74 7.1 72.5 5.6 70.6 5.6 V 6.1 C 72.2 6.1 73.5 7.4 73.5 8.9 H 74 Z M 70.6 12.3 C 72.5 12.3 74 10.8 74 8.9 H 73.5 C 73.5 10.5 72.2 11.8 70.6 11.8 V 12.3 Z M 68.8 12.3 H 70.6 V 11.8 H 68.8 V 12.3 Z M 70.6 7.4 C 71.4 7.4 72.1 8.1 72.1 8.9 H 72.6 C 72.6 7.8 71.7 6.9 70.6 6.9 V 7.4 Z M 53.6 7.4 H 70.6 V 6.9 H 53.6 V 7.4 Z M 52.1 8.9 C 52.1 8.1 52.8 7.4 53.6 7.4 V 6.9 C 52.5 6.9 51.6 7.8 51.6 8.9 H 52.1 Z M 53.6 10.4 C 52.8 10.4 52.1 9.7 52.1 8.9 H 51.6 C 51.6 10 52.5 10.9 53.6 10.9 V 10.4 Z M 66.2 10.4 H 53.6 V 10.9 H 66.2 V 10.4 Z M 70.6 10.4 H 66.2 V 10.9 H 70.6 V 10.4 Z M 72.1 8.9 C 72.1 9.7 71.4 10.4 70.6 10.4 V 10.9 C 71.7 10.9 72.6 10 72.6 8.9 H 72.1 Z M 45.5 5.6 C 44.6 5.6 43.9 4.9 43.9 4.1 H 43.4 C 43.4 5.2 44.4 6.1 45.5 6.1 V 5.6 Z M 62.4 5.6 H 45.5 V 6.1 H 62.4 V 5.6 Z M 64 4.1 C 64 4.9 63.3 5.6 62.4 5.6 V 6.1 C 63.5 6.1 64.5 5.2 64.5 4.1 H 64 Z M 62.4 2.6 C 63.3 2.6 64 3.3 64 4.1 H 64.5 C 64.5 3 63.5 2.1 62.4 2.1 V 2.6 Z M 45.5 2.6 H 62.4 V 2.1 H 45.5 V 2.6 Z M 43.9 4.1 C 43.9 3.3 44.6 2.6 45.5 2.6 V 2.1 C 44.4 2.1 43.4 3 43.4 4.1 H 43.9 Z M 49.2 12.3 H 66.2 V 11.8 H 49.2 V 12.3 Z M 47.7 13.8 C 47.7 12.9 48.4 12.3 49.2 12.3 V 11.8 C 48.1 11.8 47.2 12.7 47.2 13.8 H 47.7 Z M 49.2 15.3 C 48.4 15.3 47.7 14.6 47.7 13.8 H 47.2 C 47.2 14.9 48.1 15.8 49.2 15.8 V 15.3 Z M 57.6 15.3 H 49.2 V 15.8 H 57.6 V 15.3 Z M 65.9 11.9 C 62.6 11.9 59.6 13.2 57.5 15.3 L 57.8 15.7 C 59.9 13.7 62.8 12.4 65.9 12.4 V 11.9 Z M 67 11.9 C 66.6 11.9 66.3 11.9 65.9 11.9 V 12.4 C 66.3 12.4 66.6 12.4 66.9 12.4 L 67 11.9 Z M 66.2 12.3 C 66.4 12.3 66.6 12.3 66.8 12.4 L 67 12 C 66.8 11.8 66.5 11.8 66.2 11.8 V 12.3 Z M 49.2 17.1 H 56.4 V 16.6 H 49.2 V 17.1 Z M 47.7 18.6 C 47.7 17.8 48.4 17.1 49.2 17.1 V 16.6 C 48.1 16.6 47.2 17.5 47.2 18.6 H 47.7 Z M 49.2 20.1 C 48.4 20.1 47.7 19.4 47.7 18.6 H 47.2 C 47.2 19.7 48.1 20.6 49.2 20.6 V 20.1 Z M 54.7 20.1 H 49.2 V 20.6 H 54.7 V 20.1 Z M 56.2 16.7 C 55.4 17.8 54.8 19 54.4 20.3 L 54.9 20.4 C 55.3 19.2 55.9 18 56.6 17 L 56.2 16.7 Z M 49.2 21.9 H 54.4 V 21.4 H 49.2 V 21.9 Z M 47.7 23.4 C 47.7 22.6 48.4 21.9 49.2 21.9 V 21.4 C 48.1 21.4 47.2 22.3 47.2 23.4 H 47.7 Z M 49.2 24.9 C 48.4 24.9 47.7 24.3 47.7 23.4 H 47.2 C 47.2 24.6 48.1 25.4 49.2 25.4 V 24.9 Z M 54.3 24.9 H 49.2 V 25.4 H 54.3 V 24.9 Z M 53.9 23.6 C 53.9 24.1 54 24.7 54.1 25.2 L 54.6 25.2 C 54.5 24.6 54.4 24.1 54.4 23.6 H 53.9 Z M 54.1 21.7 C 54 22.3 53.9 22.9 53.9 23.6 H 54.4 C 54.4 23 54.5 22.3 54.6 21.7 L 54.1 21.7 Z M 49.2 29.8 C 48.4 29.8 47.7 29.1 47.7 28.3 H 47.2 C 47.2 29.4 48.1 30.3 49.2 30.3 V 29.8 Z M 56.3 29.8 H 49.2 V 30.3 H 56.3 V 29.8 Z M 54.4 26.6 C 54.7 27.9 55.3 29.1 56 30.2 L 56.5 29.9 C 55.7 28.9 55.2 27.7 54.8 26.5 L 54.4 26.6 Z M 49.2 26.8 H 54.6 V 26.3 H 49.2 V 26.8 Z M 47.7 28.3 C 47.7 27.5 48.4 26.8 49.2 26.8 V 26.3 C 48.1 26.3 47.2 27.2 47.2 28.3 H 47.7 Z M 65.9 33.4 C 60.4 33.4 55.8 29 55.8 23.6 H 55.3 C 55.3 29.3 60.1 33.9 65.9 33.9 V 33.4 Z M 76.1 23.6 C 76.1 29 71.5 33.4 65.9 33.4 V 33.9 C 71.8 33.9 76.6 29.3 76.6 23.6 H 76.1 Z M 65.9 13.7 C 71.5 13.7 76.1 18.2 76.1 23.6 H 76.6 C 76.6 17.9 71.8 13.2 65.9 13.2 V 13.7 Z M 55.8 23.6 C 55.8 18.2 60.4 13.7 65.9 13.7 V 13.2 C 60.1 13.2 55.3 17.9 55.3 23.6 H 55.8 Z M 65.9 22.5 C 65.1 22.5 64.4 21.9 64.4 21.3 H 63.9 C 63.9 22.3 64.9 23 65.9 23 V 22.5 Z M 69.6 25.8 C 69.6 24 67.9 22.5 65.9 22.5 V 23 C 67.7 23 69.1 24.3 69.1 25.8 H 69.6 Z M 66.8 29 C 68.4 28.6 69.6 27.4 69.6 25.8 H 69.1 C 69.1 27.1 68.1 28.2 66.7 28.5 L 66.8 29 Z M 67 29.1 V 28.7 H 66.5 V 29.1 H 67 Z M 65.9 30.1 C 66.5 30.1 67 29.7 67 29.1 H 66.5 C 66.5 29.4 66.3 29.6 65.9 29.6 V 30.1 Z M 64.9 29.1 C 64.9 29.7 65.4 30.1 65.9 30.1 V 29.6 C 65.6 29.6 65.4 29.4 65.4 29.1 H 64.9 Z M 64.9 28.7 V 29.1 H 65.4 V 28.7 H 64.9 Z M 62.3 25.8 C 62.3 27.4 63.5 28.6 65.1 29 L 65.2 28.5 C 63.8 28.2 62.8 27.1 62.8 25.8 H 62.3 Z M 63.4 24.8 C 62.8 24.8 62.3 25.2 62.3 25.8 H 62.8 C 62.8 25.5 63.1 25.3 63.4 25.3 V 24.8 Z M 64.4 25.8 C 64.4 25.2 64 24.8 63.4 24.8 V 25.3 C 63.7 25.3 63.9 25.5 63.9 25.8 H 64.4 Z M 65.9 27 C 65.1 27 64.4 26.4 64.4 25.8 H 63.9 C 63.9 26.8 64.9 27.5 65.9 27.5 V 27 Z M 67.5 25.8 C 67.5 26.4 66.8 27 65.9 27 V 27.5 C 67 27.5 68 26.8 68 25.8 H 67.5 Z M 65.9 24.6 C 66.8 24.6 67.5 25.2 67.5 25.8 H 68 C 68 24.8 67 24.1 65.9 24.1 V 24.6 Z M 62.3 21.3 C 62.3 23.1 64 24.6 65.9 24.6 V 24.1 C 64.2 24.1 62.8 22.8 62.8 21.3 H 62.3 Z M 65.1 18.1 C 63.5 18.4 62.3 19.7 62.3 21.3 H 62.8 C 62.8 20 63.8 18.9 65.2 18.6 L 65.1 18.1 Z M 64.9 17.9 V 18.3 H 65.4 V 17.9 H 64.9 Z M 65.9 16.9 C 65.4 16.9 64.9 17.4 64.9 17.9 H 65.4 C 65.4 17.6 65.6 17.4 65.9 17.4 V 16.9 Z M 67 17.9 C 67 17.4 66.5 16.9 65.9 16.9 V 17.4 C 66.3 17.4 66.5 17.6 66.5 17.9 H 67 Z M 67 18.3 V 17.9 H 66.5 V 18.3 H 67 Z M 69.6 21.3 C 69.6 19.7 68.4 18.4 66.8 18.1 L 66.7 18.6 C 68.1 18.9 69.1 20 69.1 21.3 H 69.6 Z M 68.5 22.3 C 69.1 22.3 69.6 21.9 69.6 21.3 H 69.1 C 69.1 21.6 68.8 21.8 68.5 21.8 V 22.3 Z M 67.5 21.3 C 67.5 21.9 67.9 22.3 68.5 22.3 V 21.8 C 68.2 21.8 68 21.6 68 21.3 H 67.5 Z M 65.9 20 C 66.8 20 67.5 20.6 67.5 21.3 H 68 C 68 20.3 67 19.5 65.9 19.5 V 20 Z M 64.4 21.3 C 64.4 20.6 65.1 20 65.9 20 V 19.5 C 64.9 19.5 63.9 20.3 63.9 21.3 H 64.4 Z"
        fill="#ff872c" />
    <path
        d="M 18.8 54.2 L 18.8 60.9 L 17.3 60.9 L 17.3 54.4 C 17.3 54 17.3 53.6 17.2 53.3 Q 17 52.2 16.4 51.5 C 15.9 51 15.3 50.7 14.6 50.6 C 14.4 50.6 14.2 50.5 13.9 50.5 C 13.6 50.5 13.2 50.6 12.8 50.7 C 12.2 50.9 11.7 51.2 11.4 51.6 C 11 52 10.8 52.4 10.7 52.9 Q 10.5 53.4 10.4 54 C 10.4 54.2 10.4 54.5 10.4 54.7 L 10.4 60.9 L 9 60.9 L 9 54.4 C 9 54 8.9 53.6 8.9 53.3 Q 8.7 52.2 8 51.5 C 7.6 51 7 50.7 6.3 50.6 C 6.1 50.6 5.8 50.5 5.6 50.5 C 5.2 50.5 4.8 50.6 4.4 50.7 C 3.9 50.9 3.4 51.2 3 51.6 C 2.7 52 2.4 52.4 2.3 52.9 Q 2.1 53.4 2 54 C 2 54.2 2 54.5 2 54.7 L 2 60.9 L 0.5 60.9 L 0.5 49.5 L 2 49.5 L 2 51.4 Q 2.6 50.4 3.6 49.8 C 4.2 49.5 4.9 49.3 5.6 49.3 C 5.7 49.3 5.7 49.3 5.8 49.3 Q 7.3 49.3 8.4 50 C 9.1 50.4 9.6 51 9.9 51.6 C 10 51.8 10 51.9 10.1 52.1 C 10.2 51.6 10.4 51.2 10.7 50.8 C 11 50.5 11.3 50.2 11.6 50 C 12.4 49.5 13.2 49.3 14 49.3 C 14.1 49.3 14.1 49.3 14.2 49.3 C 14.7 49.3 15.2 49.3 15.7 49.5 C 16.4 49.7 17 50.1 17.5 50.5 C 18 51 18.3 51.6 18.5 52.3 Q 18.7 52.9 18.7 53.7 C 18.8 53.8 18.8 54 18.8 54.2 Z M 29.9 49.5 L 31.5 49.5 L 24.7 66.2 L 23.1 66.2 L 25.4 60.8 L 20.6 49.5 L 22.3 49.5 L 26.2 59.2 L 29.9 49.5 Z"
        fill="white" />
    <g>
        <path transform="matrix(0.9,0,0,0.9,2,3.1)"
            d="M 35.5 63.7 H 38 V 54.2 H 40.2 V 52.3 H 38 V 51.4 C 38 50.1 38.5 49.6 40 49.6 V 47.7 C 36.9 47.7 35.5 48.8 35.5 51.4 V 52.3 H 34.1 V 54.2 H 35.5 V 63.7 Z"
            fill="white" />
        <path transform="matrix(0.9,0,0,0.9,2.4,3.1)"
            d="M 41.9 63.9 H 44.4 V 52.5 H 41.9 V 63.9 Z M 43.2 50.9 C 44 50.9 44.7 50.3 44.7 49.4 C 44.7 48.6 44 47.9 43.2 47.9 C 42.3 47.9 41.6 48.6 41.6 49.4 C 41.6 50.3 42.3 50.9 43.2 50.9 Z"
            fill="white" />
        <path transform="matrix(0.9,0,0,0.9,2.9,3.2)"
            d="M 55.4 63.6 H 57.8 V 56.8 C 57.8 53.6 55.7 52 53 52 C 51.5 52 50.2 52.5 49.4 53.5 V 52.2 H 47 V 63.6 H 49.4 V 57.2 C 49.4 55.1 50.6 54 52.4 54 C 54.2 54 55.4 55.1 55.4 57.2 V 63.6 Z"
            fill="white" />
        <path transform="matrix(0.9,0,0,0.9,3.7,3.3)"
            d="M 59.2 58 C 59.2 61.6 61.7 64 64.8 64 C 66.7 64 68.2 63.1 68.9 62.1 V 63.8 H 71.4 V 52.4 H 68.9 V 54 C 68.2 53.1 66.8 52.2 64.8 52.2 C 61.7 52.2 59.2 54.5 59.2 58 Z M 68.9 58.1 C 68.9 60.5 67.2 61.9 65.3 61.9 C 63.5 61.9 61.7 60.5 61.7 58 C 61.7 55.6 63.5 54.2 65.3 54.2 C 67.2 54.2 68.9 55.6 68.9 58.1 Z"
            fill="white" />
        <path transform="matrix(0.9,0,0,0.9,4.6,3.2)"
            d="M 82.1 63.8 H 84.5 V 57 C 84.5 53.8 82.4 52.2 79.7 52.2 C 78.2 52.2 76.9 52.7 76.1 53.7 V 52.4 H 73.7 V 63.8 H 76.1 V 57.4 C 76.1 55.3 77.3 54.2 79.1 54.2 C 80.9 54.2 82.1 55.3 82.1 57.4 V 63.8 Z"
            fill="white" />
        <path transform="matrix(0.9,0,0,0.9,5.3,3.3)"
            d="M 86 58.1 C 86 61.7 88.4 64 91.8 64 C 94.7 64 96.6 62.4 97.3 60.2 H 94.6 C 94.2 61.4 93.3 62 91.8 62 C 89.8 62 88.5 60.6 88.5 58.1 C 88.5 55.6 89.8 54.2 91.8 54.2 C 93.3 54.2 94.2 54.9 94.6 56 H 97.3 C 96.6 53.6 94.7 52.2 91.8 52.2 C 88.4 52.2 86 54.5 86 58.1 Z"
            fill="white" />
        <path transform="matrix(0.9,0,0,0.9,6.1,3.3)"
            d="M 103.9 54.2 C 105.7 54.2 107.2 55.3 107.2 57 H 100.7 C 100.9 55.2 102.2 54.2 103.9 54.2 Z M 109.4 60.4 H 106.8 C 106.3 61.3 105.5 62 104 62 C 102.2 62 100.8 60.8 100.6 59 H 109.7 C 109.7 58.6 109.8 58.2 109.8 57.8 C 109.8 54.4 107.4 52.2 104 52.2 C 100.5 52.2 98.1 54.5 98.1 58.1 C 98.1 61.7 100.6 64 104 64 C 106.9 64 108.8 62.4 109.4 60.4 Z"
            fill="white" />
        <path transform="matrix(0.9,0,0,0.9,6.8,3.3)"
            d="M 120.3 60.6 C 120.2 56.5 113.5 57.8 113.5 55.4 C 113.5 54.7 114.2 54.2 115.5 54.2 C 116.8 54.2 117.6 54.8 117.7 55.8 H 120.1 C 120 53.6 118.3 52.2 115.6 52.2 C 112.8 52.2 111 53.6 111 55.5 C 111 59.7 117.9 58.4 117.9 60.6 C 117.9 61.4 117.1 62 115.7 62 C 114.4 62 113.4 61.2 113.4 60.3 H 110.8 C 110.9 62.4 112.9 64 115.8 64 C 118.6 64 120.3 62.5 120.3 60.6 Z"
            fill="white" />
    </g>
    <path d="M 20.6 1 S 20 56.8 20 56.8" fill="rgb(255, 255, 255)" />
</svg>